<?xml version="1.0" encoding="UTF-8"?>
<svg version="1.1" viewBox="0 0 1310 1600" width="348" height="425" xmlns="http://www.w3.org/2000/svg">
<path transform="translate(721,44)" d="m0 0h24l15 3 13 5 16 8 18 12 14 11 10 9 8 7 15 14 12 11 7 7 8 7 12 11 26 24 7 7 8 7 28 28 6 10 2 5 1 6v8l-4 15-6 12-8 10-9 10-16 13-16 10-23 12-24 9-17 5-1 2 10 29 9 27 8 32 3 21 1 14v36l-3 30-7 35-8 28-9 26-9 20-9 17-11 17-10 14-11 14-14 15-14 14-11 9-10 8-1 1v8l4 9 8 11 9 10 12 12 7 8 15 16 14 15 9 10 11 12 15 16 49 49 7 8 12 13 7 7 10 6v-13l-3-38v-12l2-26 3-19 5-18 8-19 7-13 7-10 9-11 9-9 16-11 16-9 21-8 23-5 8-1h20l25 4 21 6 18 8 15 9 13 11 11 10 7 8 11 14 9 14 9 16 10 21 9 25 6 24 4 27 1 13v65l-2 24-4 29-5 25-7 26-13 40-10 25-10 21-11 19-14 21-9 12-9 11-18 20-15 14-13 10-14 11-6 8-6 15-15 43-7 16-9 15-12 17-9 11-9 10-7 8-16 15-10 8-18 14-19 14-16 11-4 3h-2v2l13 2 36 6 12 1 93 1 18 2 17 4 16 7 9 6 5 5 5 8v8l-4 9-4 8-2 3h-1148l-3-8 1-7 6-8 9-8 10-6 22-8 26-5 6-2-9-7-7-6-7-8-8-8-10-13-10-17-8-20-2-9-1-11v-15l1-15 4-15 9-19 8-11 9-10 9-9 15-11 16-9 18-8 16-5 22-3 40-2 6-1v-287l1-44 2-22 3-21 6-26 10-30 9-20 11-23 13-23 9-16 9-14 10-14-2-4-13-8-15-10-17-13-10-9-8-7-12-11-16-16-7-8-9-10-13-17-14-21-9-16-11-22-10-24-7-19-7-26-4-22-4-37v-42l3-13 6-11 6-8h2l1-3 14-10 16-9 13-5 20-4 28-3 8-4 7-8 12-23 6-14-5 1h-24l-15-2-22-6-18-8-12-8-10-9-8-8-9-12-7-14-2-9v-10l3-10 7-12 9-10 7-8 7-7 7-8 7-7h2l1-3 8-7 18-18h2v-2l8-7 19-19 8-7 12-12 8-7 12-11 11-9 15-11 16-8 16-4 7-1h23l14 2 17 5 21 10 17 12 11 9 7 6 7 8 9 11 7 9 4 2 37-12 21-5 16-2 34-2h21l23 2 15 3 13 4 10 5 2-5 10-17 11-14 5-6 8-7 10-8 15-7 9-3z" fill="#32231A"/>
<path transform="translate(686,796)" d="m0 0 4 2 22 26 9 11 13 15 7 8 14 15 26 26 8 7 9 9 8 7 11 11 7 8 8 8v2l4 2 7 8 27 27 7 8 12 13 4 5 6 5 7 8 9 9 8 7 5 6 8 7 10 10 8 7 13 13 9 11 6 7 12 17 8 13 11 23 3 8v5h2l4 12 2 7 3 11 4 25 2 9 1 27v28l-2 15-2 12-2 6-2 10-5 12-8 16-6 10-2 1-1 4-4 8-1 3h-2l-1 3h-2l-2 4-10 14-7 8-8 7-5 5-2 3-5 3-13 10-4 4h-5v2l-10 6h-2v2l-6 1v2l-5 3-26 9-19 7-15 4-18 2-44 2-39 1h-50l-44-1h-172l-91-2-13-1-20-9-11-8-5-4-5-7-1-4v-14l5-16 12-14 12-11 10-8 11-6 12-4 12-1 3-1 33-3 33-1 151-1 28-3 12-3 4-17 1-5h2l-1-16-7-5-13-5-9-6-4-6-1-6v-11l3-24 4-14 7-17h2l1-5 8-11 6-8 9-10 18-13 19-11 5-3 10-4 14-6 15-3 9-1h51l24 6 16 8 7 3 11 5 16 4h11l10-15 3-5 3-9-1-1-1-11-5-12-8-8-14-10-18-10-22-8-6-2-18-3v-2l-10-1-6-1-17-1h-19l-25 3-25 6-18 6-15 7-17 9-10 7-4 1v2l-4 1v2l-7 5-7 8-7 7-1 2h-2l-2 5-8 13-1-3v-14l-2-13-1-21-2-14-7-9-6-7-8-3-6-1h-8l-9 3-14 7-3 3-2 6h-2v16l3 27 9 57 6 36 1 17-2 44-2 13-5 1-15-3h-68l-42 2h-15l-2-2-2-14-1-79-1-22v-96l1-20 1-9v-29l-4-10-10-9-13-6h-21l-14 5-9 9-4 7-1 6v271l-1 1-22 4-19 7-20 12-10 8h-5l-3-51-1-34v-179l1-79 1-21 1-1 1-20 4-24 3-14 1-1 2-11 1-1 2-10 5-14 13-23 13-21 11-12 9-9 8-11 5-1 19 8 10 5 20 7 14 5 32 6 15 1 12 2 25 2h28l32-3 33-7 19-5 13-3 8-3 30-12 8-4 13-7z" fill="#FCF7E9"/>
<path transform="translate(557,173)" d="m0 0h38l22 3 22 5 8 3 4 5 1 4 1 33 2 28 5 21 8 16 7 10 19 19 11 10 5 3v2l5 2 7 5 7 3v2l9 1 9 3 26 2 5 5 6 15 5 17 3 8 9 34 4 36v18l-2 31-3 20-2 5-2 9-2 10-2 7-5 15-4 7-4 12-8 15-6 11-5 9h-2l-1 4-8 11-6 8-8 10-4 4-2 4-5 4-15 15-8 7-15 12-12 8-11 6-19 10-16 6h-3v2l-14 5-12 5-13 4-23 6-21 2-22 1h-15l-24-1-24-3-34-8-15-4-17-5-23-8-12-5-7-4-7-3-24-14-14-10-16-13-9-9-11-9-14-13-9-11-11-12-8-10-10-12-4-6-6-8-16-32-6-15-6-17-5-17-3-11v-14l14-13 5-9 5-10 2-7 2-29 1-4 21-3 15-2 11-2 10-5 10-9 8-12 5-9 5-12 6-15 4-9h2l2-8 6-10 12-22 12-16 9-11 9-10 5-5 8-9h2l1-3 5-5 5-3 3-4 3-1 3-3 15-11 7-4 1-2 6-3h2v-2l6-3 8-5 21-10 8-4 16-6 20-6 23-4 9-1 33-2z" fill="#FCF7E9"/>
<path transform="translate(773,1159)" d="m0 0h51l24 6 16 8 7 3 11 5 16 4h11l10-15 3-5h2l1-4 1-2h3l1 2-1 12-4 15v16l4 30 1 12v39l-3 16-6 17-8 14-11 14-9 11-16 16-14 11-15 11-20 12-12 6-39 15-36 12-23 6-43 9-36 8-18 5-19 7-14 7-75 3-110-1-26-1-18-8-11-8-5-4-5-7-1-4v-14l5-16 12-14 12-11 10-8 11-6 12-4 12-1 3-1 33-3 33-1 151-1 28-3 12-3 4-17 1-5h2l-1-16-7-5-13-5-9-6-4-6-1-6v-11l3-24 4-14 7-17h2l1-5 8-11 6-8 9-10 18-13 19-11 5-3 10-4 14-6 15-3z" fill="#FCF7E9"/>
<path transform="translate(1071,806)" d="m0 0h16l16 3 13 4 13 7 9 7 12 12 9 12 6 11 7 14 5 15 2 10 2 6 3 14 2 15 1 1 3 21v54l-3 29-2 8-4 27-2 9-2 4-2 11-2 4-1 6h-2l-2 12-8 23-5 10-3 7-11 21-4 7-2 3h-2l-1 4-4 7-3 3h-2l-1 5-8 7-7 7-4-1-4-27-4-17-1-1-3-14-4-16-4-11-3-6-3-9v-3h-2l-4-10-2-1v-3h-2l-4-8-5-7-5-9-8-11-10-13-9-11-12-14-5-8v-64l-3-36-1-18v-18l2-19 4-16 4-9 6-10 9-10 10-8 12-6 10-4z" fill="#FCF7E9"/>
<path transform="translate(939,1529)" d="m0 0 21 4 30 5 12 1 93 1 18 2 17 4 16 7 9 6 5 5 5 8v8l-4 9-4 8-2 3h-1148l-3-8 1-7 6-8 9-8 10-6 22-8 26-5 10-1v2l7 1 3 2 16 3 33 2h188l34 1h450l24-2 6-2 17-2 16-4 14-4 8-2 9-3h3v-2l16-6z" fill="#CEC3B6"/>
<path transform="translate(936,1085)" d="m0 0h7l17 8 8 6 3 4v2h2l3 5 1 3h2l7 8 1 4h2v2l4 1v3l5 2-1-5 4 4 12 25 3 8v5h2l4 12 2 7 3 11 4 25 2 9 1 27v28l-2 15-2 12-2 6-2 10-5 12-8 16-6 10-2 1-1 4-4 8-1 3h-2l-1 3h-2l-2 4-10 14-7 8-8 7-5 5-2 3-5 3-13 10-4 4h-5v2l-10 6h-2v2l-6 1v2l-5 3-26 9-19 7-15 4-18 2-44 2-39 1h-50l-44-1h-172l-91-2-13-1v-1h24l110 1 75-3 7-4 13-5 20-7 32-8 40-8 31-7 22-7 32-11 26-10 14-6 15-9 12-8 11-8 11-9 10-9 11-11 13-17 7-10 7-14 5-16 2-12v-39l-3-26-2-16v-16l5-21v-8h-3l-2 6-1-4 2-5-1-1v-11l2 4 1 3 2-6h2l-3-15-5-12-5-8 2-15 3-4 9-4z" fill="#CDC2B5"/>
<path transform="translate(650,189)" d="m0 0 2 4 1 33 2 28 5 21 8 16 7 10 19 19 11 10 5 3v2l5 2 7 5 7 3v2l9 1 9 3 26 2 5 5 6 15 5 17 3 8 9 34 4 36v18l-2 31-3 20-2 5-2 9-2 10-2 7-5 15-4 7-4 12-8 15-6 11-5 9h-2l-1 4-8 11-6 8-8 10-4 4-2 4-5 4-15 15-8 7-15 12-12 8-11 6-19 10-16 6h-3v2l-14 5-12 5-13 4-23 6-21 2-22 1h-15l-24-1-24-3-34-8-15-4-7-2 4-1 15 3 9 1h17l20-4 27-8 23-8 26-11 22-11 16-10 12-9 10-8 14-12 22-22 11-14 10-15 10-16 9-16 11-23 9-25 8-30 4-25 2-22 1-18v-36l-4-18-9-21-14-27-10-18-11-23-6-18-2-8-2-15-1-1-3-29z" fill="#CEC3B6"/>
<path transform="translate(686,796)" d="m0 0 4 2 22 26 18 22-1 3 7 10v2h2l3 4v2h2l5 6v2l4 2 5 5 2 4h2l7 8 3 3v2h2l6 7 10 8v2l4 2 7 8v2l4 2 7 7v2l4 2 4 5 5 10 3 5 7 9 1 8-9 2-7 3-13 4-17 1-9-4-11-7-12-8-19-14-15-9-14-8-11-6-12-6-14-8-19-8-19-6-22-6-25-9-25-11-25-12-23-13-15-3-31-3-8-1v-1h9l25 2h28l32-3 33-7 19-5 13-3 8-3 30-12 8-4 13-7z" fill="#CEC3B6"/>
<path transform="translate(1165,864)" d="m0 0 3 4 4 8 5 15 2 10 2 6 3 14 2 15 1 1 3 21v54l-3 29-2 8-4 27-2 9-2 4-2 11-2 4-1 6h-2l-2 12-8 23-5 10-3 7-11 21-4 7-2 3h-2l-1 4-4 7-3 3h-2l-1 5-8 7-7 7-4-1-4-27-4-17-1-1-3-14-4-16-4-11-3-6-3-9v-3h-2l-4-10-2-1v-3h-2l-4-8-5-7-3-7 3-1 4-8 10-9 14-10 12-11 8-8 12-19 5-11 6-15 8-28 6-24 8-40 3-24 2-5 6-4 1-2h2z" fill="#CEC3B6"/>
<path transform="translate(737,120)" d="m0 0h6l9 4v2l5 2 3 3 2 1v2l5 2 5 5 12 11 7 5 10 10 13 11 5 3 5 5 6 5 3 3 16 14 2 1v2l5 2 4 4 2 1v2l4 1v2h3v2l4 1v2l4 1 9 9 3 2v5l-7 4h-2v2h-2v2h-4v2l-19 9-9 3-17 4-21 2h-15l-20-3-5-2v-2l-7-2-15-14v-2h-2l-7-13-3-9-4-19-3-22-1-16-1-3-1-16v-14l3-9h2l1-3h2v-2z" fill="#CDC2B5"/>
<path transform="translate(324,115)" d="m0 0h7l15 5v2l5 2 5 4 5 3 2 4 4 4 2 5v9l-5 5-16 10-12 12-5 4-2 3-5 3-13 12-7 7-7 8-9 10h-2l-2 5-3 2-1 3h-2l-1 4-3 1-2 5-4 2-2 4-5 4h-2v2h-16l-14-2-15-4-18-6-8-5-4-4-3-2 1-4 8-4 14-11 6-5h2l2-4 10-9 6-5 4-5 7-6h3l2-4 11-11 6-4 4-5 4-3h2l2-4 12-11 10-9 5-2 2-4 14-9z" fill="#A09081"/>
<path transform="translate(343,811)" d="m0 0 7 1 16 7 10 5 20 7 14 5 32 6 14 3 1 3-2 1h-11l-9-3h-13l-7-2-12-2-6-2-15-3-21-7-7-4-5-1-5 4-7 11v8l3 9 1 4-2 7-4 7-5 10-7 6-4 6-9 4h-5-2l-4 7-5 10-9 25-4 12-4 26v258l1 35 3 50 1 2h6l15-8 10-4 19-5 3-3 1-4 1-74v-130l2-47 3-12 4-1 1 1v277l-1 1-22 4-19 7-20 12-10 8h-5l-3-51-1-34v-179l1-79 1-21 1-1 1-20 4-24 3-14 1-1 2-11 1-1 2-10 5-14 13-23 13-21 11-12 9-9 8-11z" fill="#F7F5F3"/>
<path transform="translate(410,363)" d="m0 0h19l9 3 10 5 11 10 6 10 4 9 2 5v33l-2 5-2 12-4 9-6 9-5 6-5 4-13 6-4 2h-20l-13-4-11-8-10-14-5-15-2-11v-26l1-13 7-14h2l2-5 7-7 12-7z" fill="#32231A"/>
<path transform="translate(160,1386)" d="m0 0h46v42l2 40 1 17h-75l-16-3-13-13-6-10-3-8v-14l4-11 2-2 3-8 9-10 10-7 9-5h3v-2l16-5z" fill="#FBF6E8"/>
<path transform="translate(587,1084)" d="m0 0h8l12 3 5 5 6 7-1 1v29l-3 15h-2l-1 8-5 13-2 9-4 10-3 12-5 11-10 18-5 2 1 13v16l-2 14h-1v-18l-2-19-10-60-6-41-1-12v-12l1-4h2l2-7 8-6 13-6z" fill="#736252"/>
<path transform="translate(200,440)" d="m0 0 4 1 1 10v10l-6 18-6 9-9 9-3 6v9l6 20 7 18 8 20 13 23 8 12 11 13 14 14 2 1v2h2v2h2v2l3 1 9 11 7 9 12 11 9 10 6 7 20 14 14 9 16 9 10 6 17 8 10 5 20 6 16 3 24 3 7 3-1 2-7 1h-17l-20-3-15-3-26-9-12-5-7-4-7-3-24-14-14-10-16-13-9-9-11-9-14-13-9-11-11-12-8-10-10-12-4-6-6-8-16-32-6-15-6-17-5-17-3-11v-14l14-13 5-9 5-10 4-14z" fill="#F9F8F6"/>
<path transform="translate(729,847)" d="m0 0 4 2 9 10 12 13 20 20 3 4h-2l7 8 5 6 8 7 7 6 3 3 2 1v3l3 1v2l4 2v2h2l1 4 3 1 10 13v2l3 1v2l4 2 4 5v2h2v2l4 2 9 11 9 13 7 8 3 10-3 1-2 10-3 1-2 4h-13l-22-7-9-3-12-5-11-8-10-7-8-7-5-5-10-8-4-3v-2l-3-1-4-5-11-9-13-10h3l16 11 14 10 15 10 11 5h8l12-2 16-5 5-2h5l-3-10-8-9-4-10-6-8-17-17-6-7-2-1v-2l-4-2-12-11v-2h-2l-7-8-3-3v-2h-2l-5-6v-2l-4-2-5-5-2-4h-2l-3-4v-2h-2l-8-12z" fill="#F6EBDE"/>
<path transform="translate(160,1386)" d="m0 0h46v42l2 40 1 17h-75l-16-3-4-3v-2h6v-3l5-2h12l13-2 2-2-2-1-2-10-3-4 4-11 3-1 1-5 8-4 8-6 6-3h4v2l8-2-1-8 3-2 3 4 1 11 2 7v8l1 10v14l-3 3h-2l1 5 6 2 7 2v-20l-1-18v-52l1-2-31 1-26 1 4-2z" fill="#F7ECDF"/>
<path transform="translate(292,139)" d="m0 0 1 2-6 11h-2l-1 4-4 5-2 1v7l-3 3-3 5h-2l-2 5v5l-2 1-4-1-4 3h-2l-2 4-1 3-5 4-6 3-4 1v7l-2 2-1 9 2 1-2 7v11l-1 3 6 1 7 5 12 1 1-2 8-2-1 4-6 5h-2v2h-16l-14-2-15-4-18-6-8-5-4-4-3-2 1-4 8-4 14-11 6-5h2l2-4 10-9 6-5 4-5 7-6h3l2-4 11-11 6-4 4-5 4-3h2l2-4 5-4 5-3z" fill="#B2A394"/>
<path transform="translate(899,1056)" d="m0 0h20l7 4 9 6 5 5 3 2v2l4 1 8 7 5 5 3 2v2l4 2v2l4 2 5 4v2h2l2 6 4 1v3l3 1 1 2 4 1 5 8 2 8-6-3v-3l-4-1v-2h-2l-4-7-4-3v-2h-2l-4-5v-3h-2l-3-4v-2l-4-2-8-5-13-6h-7l-14 7-2 6-1 11 5 8 5 12 2 8v7h-2l-1 9-2-3-1-7h-2l-1-5 1-1-5-12-7-9-10-9-9-6-4-9-1-9-3-6v-7l4-10 5-3z" fill="#F6EBDE"/>
<path transform="translate(448,196)" d="m0 0h7l-1 4-8 5-18 11-18 10-18 13-12 12-6 4-5 6-10 8-8 10-7 8-7 11-6 15-3 8-4 10-9 14-11 15-11 20-7 11-9 11-5 5-5-1 2-6 7-12 5-9 4-11 6-13 3-8h2l2-8 6-10 12-22 12-16 9-11 9-10 5-5 8-9h2l1-3 5-5 5-3 3-4 3-1 3-3 15-11 7-4 1-2 6-3h2v-2l6-3 8-5 21-10z" fill="#F9F7F5"/>
<path transform="translate(469,1375)" d="m0 0h22l3 2-9 3-48 3-35 6-9 4-13 8-8 9-5 6-5 3-7 10-2 7v15l4 7 9 6 9 5 10 5 11 1h24l34 1 14 2 1 4-3 1h-89l-18-8-11-8-5-4-5-7-1-4v-14l5-16 12-14 12-11 10-8 11-6 12-4 12-1 3-1z" fill="#FBFAF8"/>
<path transform="translate(410,363)" d="m0 0h19l9 3 10 5 11 10 6 10 4 9 2 5v33l-2 5-2 12-4 9-6 9-5 6-5 4-13 6-9 1 3-1 1-3 12-6 4-6h2v-2h2l2-4 5-13 2-7 2-19 1-15-1-13-3-8-3-5-1-4-4-2-6-5-9-4-12-1-12 1-14 7-11 11-3 5-3 11-1 18 1 8v16l-4 2-1-4-4-1-1-7v-26l1-13 7-14h2l2-5 7-7 12-7z" fill="#251611"/>
<path transform="translate(243,836)" d="m0 0 1 2-11 22-8 19-9 25-8 29-4 21-3 24-1 29v286l-1 26-6 2-16 1h-32l4-3 40-2 6-1v-287l1-44 2-22 3-21 6-26 10-30 9-20 11-23 3-5z" fill="#291A15"/>
<path transform="translate(188,570)" d="m0 0 3 1 14 28 7 11 4 5 10 13 8 9 9 11 11 12 7 8 14 12 12 11 9 8 16 12 18 11 15 9 7 3 11 5 16 6 25 8 17 4 21 6 6 2-1 2-11-1h-9l-15-4-13-4-7-3h-9l-9-4-6-2-9-2-9-4-7-3-10-4-8-4-4-3v-2l-5-2-5-4-5-5-11-10-4-4v-2l-3-1v-2l-4-1v-2l-5-2-4-5-8-6v-2l-5-2-1-4-3-1-7-8-8-7-4-5-5-5-6-7v-2l-3-1-3-3v-2h-2l-7-9-3-5-1-3-3-1-4-6-3-6-4-10-3-8-2-7-3-3z" fill="#231510"/>
<path transform="translate(617,1099)" d="m0 0h2l4 6 2 14v18l-3 1-4 18-3 8-3 20 1 9v10l-12 24-6 16-6 9-9-1-1 3h-1l-1-14v-13l5-2 2-6 8-13 6-17 4-13 2-4 2-10 5-14 1-4h2l1-11 1-4v-29z" fill="#46362C"/>
<path transform="translate(99,413)" d="m0 0v3l-3 8-1 6v47l4 31 3 17 4 16 7 27 9 24 12 25 4 8 8 15 7 11 13 18 11 14 5 6 9 9v2h2l7 8 13 12 8 7 5 5 15 12 6 4v2l5 2 13 8 9 5 7 5 2 7-10 14-9 12-5 8-3 1 1-4 11-18 10-14-2-4-13-8-15-10-17-13-10-9-8-7-12-11-16-16-7-8-9-10-13-17-14-21-9-16-11-22-10-24-7-19-7-26-4-22-4-37v-42l3-13 3-6z" fill="#271813"/>
<path transform="translate(1071,806)" d="m0 0h16l16 3 13 4 13 7 9 7 12 12 7 10 1 5-4 4-5-2-6-8-6-10-8-7-8-6-16-6-11-4-2-1h-17l-13 4-12 5-12 9-10 15-5 9-8 26-1 14-3 13h-2v-22l2-5 1-16 2-8 6-21 11-12 11-8 10-5 10-4z" fill="#F8F7F4"/>
<path transform="translate(381,1009)" d="m0 0h12l12 3 11 7 7 7 6 10 2 5 1 8v18l-2 25-1 52-1 30-2 6h-3l-1-11v-56l1-30v-40l-4-10-10-9-13-6h-21l-14 5-9 9-2 3-4-2 2-6 4-5 10-6 14-6z" fill="#FAF8F6"/>
<path transform="translate(422,354)" d="m0 0h7l10 3 14 7 6 5 9 11 5 8 4 13 1 13v14l-3 25-4 13-7 10-5 5-5 3h-7l2-4 5-4 7-10 3-6 3-10 2-9 1-3v-33l-5-12-5-9-7-8-10-7-9-4-5-1h-19l-9 1 1-5 8-4z" fill="#F8F7F4"/>
<path transform="translate(587,1084)" d="m0 0h8l12 3 4 4-12-4h-14l-2 5 1 7-5 14-8 15h-2l-4 12v12l5 39 6 40 1 10v24l-1 5h-1v-18l-2-19-10-60-6-41-1-12v-12l1-4h2l2-7 8-6 13-6z" fill="#A39384"/>
<path transform="translate(611,1084)" d="m0 0 5 2 12 12 6 14 2 8 2 13 5 1 18-11 11-8 8-4 8-6 5-2h9l-1 3-21 11-10 7-4 1v2l-4 1v2l-7 5-7 8-7 7-1 2h-2l-2 5-8 13-1-3v-14l-2-13-1-21-2-14-2-5v-4l-4-1-6-7z" fill="#F5F3F0"/>
<path transform="translate(754,1162)" d="m0 0h15l-1 2-5 3-7 4-12 3-16 8-16 9-11 7-6 4-10 9-7 8-11 20-9 17-4 3-2-4 2-8 1-9 2-4h2l1-5 8-11 6-8 9-10 18-13 19-11 5-3 10-4 14-6z" fill="#F7F6F3"/>
<path transform="translate(1012,980)" d="m0 0 4 4 2 12 2 20 3 9 8 10 11 13 6 7v2h2v2h2v2l4 2 6 5 2 7-4 6-2 6-1-2-4-2-8-11-10-13-9-11-12-14-5-8v-11z" fill="#FBFAF9"/>
<path transform="translate(650,189)" d="m0 0 2 4 1 33 2 28 5 21 8 16 7 10 19 19 3 4 2 4 5 5 7 6v2h-2v2l-2 1-13 2-3-1h-4l-9-15-8-16-7-17v-3h-2l-4-14-2-15-1-1-3-29z" fill="#A69788"/>
<path transform="translate(160,1386)" d="m0 0h46v42l2 40 1 17h-75l-16-3-4-3v-2l10-2h25l38 3 13 2 6 2-2-41v-52l1-2-31 1-26 1 4-2z" fill="#C0B3A6"/>
<path transform="translate(676,1327)" d="m0 0 2 1v16h-2l-1 10-2 9-4 4-10 3h-7l2-2-2-2-5-2-2-1 1-6 6-3h2l5-15 4-4h3v-2l6 1 4 4z" fill="#49392E"/>
<path transform="translate(1143,910)" d="m0 0 5 2v10l-6 27-8 31-2 4-6-2 2-10 1-3 1-19 6-22 4-11z" fill="#FDFCFA"/>
<path transform="translate(250,75)" d="m0 0 3 1-9 10-8 7-7 7-8 7-9 9-8 7-12 11-3 1-1 3-8 7-55 55h-2v2h-3l2-4 11-11 7-8 7-7h2l1-3 8-7 18-18h2v-2l8-7 19-19 8-7 12-12 8-7 12-11z" fill="#2E2019"/>
<path transform="translate(1179,902)" d="m0 0h1l4 19 2 15 1 1 3 21v54l-3 29-2 8-4 27-2 9-2 4-2 11-2 4-1 6h-2l-2 12-4 12h-1l1-8 9-31 3-12 2-11 2-7 2-13 2-11 2-18v-57l-2-12-3-37-2-6z" fill="#8F7F70"/>
<path transform="translate(802,821)" d="m0 0 4 2 14 15 9 10 11 12 15 16 49 49 7 8 6 7-1 2-8-6-5-5-8-7v-2l-3-1-7-8-13-13-7-8-7-6-7-8-6-7-5-5-11-14-21-21-6-8z" fill="#291A14"/>
<path transform="translate(667,305)" d="m0 0 3 3 4 7 1 4h2l1 4 10 2h4l-4-8 5 2 4 5 2 4 5 5 7 6v2h-2v2l-2 1-13 2-3-1h-4l-9-15-8-16z" fill="#B4A596"/>
<path transform="translate(351,126)" d="m0 0 4 1 6 4 2 4 4 4 2 5v9l-5 5-16 10-4 4-3-1 5-5 3-8 4-2v-3h2l1-7-3-7-4-4-2-3v-4z" fill="#B3A495"/>
<path transform="translate(782,1077)" d="m0 0h23l16 2 9 3 13 2 6 3v2l4 1 4 4h-7l-5-2v-2h-8v-3l-17-1-12-2-33-1-9 1-6-2 4-3 14-1z" fill="#FDFDFB"/>
<path transform="translate(901,1133)" d="m0 0 6 1v2l5 2v2l5-1 4 3 1-4 2 6 1 11 1 2-4 10-6 9-1-4-1-2 1-7-3-4-1-2h-2l-3-6-2-7-3-7z" fill="#47372D"/>
<path transform="translate(349,1135)" d="m0 0h1l1 39 1 27v23l-1 74-1 12-2 2v-153z" fill="#1E100C"/>
<path transform="translate(1007,1027)" d="m0 0 5 2 6 8 12 14 11 14 10 14 2 3v3h-2v-2l-2-1-5-4-3-3v-2l-3-1-9-11-14-16v-2h-2l-2-5v-5l-3-1z" fill="#241510"/>
<path transform="translate(179,370)" d="m0 0 4 1-2 1 7 1-1 4-6 3-8 2-6 1-4-1-6 2h-4l-4-1-4-2-4 1h-5l4-3 15-5z" fill="#4A3A30"/>
<path transform="translate(105,1421)" d="m0 0 1 3-1 12v14l4 10 5 8-1 4-7-2-7-11-3-8v-14l4-11z" fill="#F1EFEB"/>
<path transform="translate(887,1010)" d="m0 0 5 2 5 6 18 18 8 7 5 6 8 7 7 7-3 1v-2l-4-2v-2l-16-8v-2l-4-2-3-1-3-5-1-3-3-1-5-5-6-5-8-11z" fill="#F5F3F0"/>
<path transform="translate(425,1256)" d="m0 0h1l5 22 2 20 4 6 2 4-5 4h-7l-2-3z" fill="#FDFDFC"/>
<path transform="translate(1122,1546)" d="m0 0h8l16 7 9 6 5 5 5 8v8l-3 8-4-2-2-8 1-4-1-10-10-3-5-3-11-7-8-4z" fill="#B6A799"/>
<path transform="translate(652,280)" d="m0 0 5 1v3h2l6 19 4 10 1 7-5-1-8-10-4-12-2-11v-5z" fill="#FDFDFB"/>
<path transform="translate(759,1082)" d="m0 0 12 1 4-1 33 1 29 4v3h8l1 3-8-1-6-1v-2l-10-1-6-1-17-1h-19l-25 3-17 4-4-1 7-1v-2l14-4z" fill="#E2D8CB"/>
<path transform="translate(557,1104)" d="m0 0h1l1 22 8 57 6 35 1 13h2l1 10v24l-1 5h-1v-18l-2-19-10-60-6-41-1-12v-12z" fill="#CFC4B7"/>
<path transform="translate(626,1464)" d="m0 0 2 2-20 7-15 6-5 3-22 1h-23v-1l17-1 10-3 2-1 11-1 9-3 25-7z" fill="#F7ECDF"/>
<path transform="translate(877,250)" d="m0 0 3 1h-2v2h-4v2l-19 9-9 3-17 4-21 2h-15l-20-3-5-2 4-1 9 2 9 1h12l18-2 5-2 15-1 10-3 11-4z" fill="#9B8B7C"/>
<path transform="translate(425,1309)" d="m0 0 3 3 21-1 9-1 20-1h69l11 2v1h-74l-42 2h-15l-2-2z" fill="#AA9C8E"/>
<path transform="translate(250,75)" d="m0 0 3 1-9 10-8 7-7 7-8 7-9 9-8 7-12 11h-3l20-20 7-8 9-9 8-7 12-11z" fill="#261813"/>
<path transform="translate(460,845)" d="m0 0h9l25 2h28l22-2h10v1l-25 5h-2l-3 5-7-3-27-4-22-2-8-1z" fill="#B9AB9D"/>
<path transform="translate(752,1081)" d="m0 0h7l-1 3-5 3-12 2v2l-7 1v2l-12 4-10 1v-2l10-6 8-3z" fill="#F9F8F5"/>
<path transform="translate(884,142)" d="m0 0 4 2 8 8 8 7 16 15 13 12 1 4-5-2-13-12-2-1v-2l-4-2-19-19-7-8z" fill="#271914"/>
<path transform="translate(804,1036)" d="m0 0 7 1 4 3v2h3l2 6-4-4-8-1-8 4h-2v2l-16 2 1-4h7l3-7 8-3z" fill="#FEFEFD"/>
<path transform="translate(797,420)" d="m0 0 2 4 2 8 4 36v18l-2 31-3 20-2 3 3-37 1-13v-13l-1-24-3-22-1-3z" fill="#A9998A"/>
<path transform="translate(1179,902)" d="m0 0h1l4 19 2 15 1 1 1 8v74h-1l-1-53-2-12-3-37-2-6z" fill="#B5A697"/>
<path transform="translate(208,1478)" d="m0 0h1v7h-75l-16-3-1-2 11 1 51 1 21 1 8 1z" fill="#99897A"/>
<path transform="translate(1010,927)" d="m0 0h4l2 8v27l-2 4h-2l-2-7z" fill="#FDFDFB"/>
<path transform="translate(293,345)" d="m0 0 1 4-5 13-6 13-3 8-5 4-1-4 1-4 2-4 4-10 5-8 1-5 3-5z" fill="#281A14"/>
<path transform="translate(652,1247)" d="m0 0 1 3-3 9-2 7-1 12v19l3 12 3 1 2 4 13 6v2l-9-3-10-6-5-7-1-6v-11l3-24 4-14z" fill="#BBAEA0"/>
<path transform="translate(1018,840)" d="m0 0 1 4-5 16-1 6-1 16-2 5h-2v35h-1v-42l1-8 2-7 3-16z" fill="#E9E1D4"/>
<path transform="translate(17,1571)" d="m0 0 4 1-5 5-1 3-2 1-2 10 4 5 1 4h-9l-3-8 1-7 6-8z" fill="#B6A799"/>
<path transform="translate(834,650)" d="m0 0 1 3-12 20-12 16-5 7-2-3 7-11 11-15 7-11z" fill="#291B15"/>
<path transform="translate(722,142)" d="m0 0h1l1 11v13h2l1 3v23l-2-2-2-9-1-1-2-15v-9z" fill="#241510"/>
<path transform="translate(926,1159)" d="m0 0h3l1 2-1 12-4 15v16l1 7v8h-1l-4-22-1-4 4-19 1-1v-9-3z" fill="#F7ECDF"/>
<path transform="translate(279,771)" d="m0 0 3 1 1 5-10 14-9 12-5 8-3 1 1-4 11-18 10-14-1-4z" fill="#291B15"/>
<path transform="translate(30,1478)" d="m0 0 4 5 10 16 7 9 3 5 1 5-4-2-8-10-10-17-3-7z" fill="#281A14"/>
<path transform="translate(1257,940)" d="m0 0h2l1 7v65l-1 7h-1z" fill="#261813"/>
<path transform="translate(695,807)" d="m0 0 4 2 9 10 8 10 12 14v4l-4-2v-2h-2l-9-11-7-9v-3h-2v-2h-2v-2h-2l-5-7z" fill="#EBE1D4"/>
<path transform="translate(378,821)" d="m0 0 3 1v2l4-1 4 2 11 3 10 3 5 5-11-1-17-6-9-4z" fill="#251611"/>
<path transform="translate(861,1174)" d="m0 0h7l9 5 5 2-1 4-7 1-8-4-7-6z" fill="#F3F1ED"/>
<path transform="translate(381,237)" d="m0 0 2 1-4 4-3 1-4 6-5 3-7 8-17 17h-2l-1 3-2-1 10-12 8-7 3-4h2l1-3 5-5 5-3 3-4 3-1z" fill="#E8E2D8"/>
<path transform="translate(659,275)" d="m0 0 3 4 7 14 7 9 4 5-7 1v-2h-2l-1-4h-2l-4-8-5-16z" fill="#746353"/>
<path transform="translate(567,1194)" d="m0 0h2l5 31v6h2l1 10v24l-1 5h-1v-18l-2-19-6-36z" fill="#BFB2A5"/>
<path transform="translate(407,1024)" d="m0 0 4 1 8 7 3 5 1 8-4-2-4-6v-2l-3-1-6-7z" fill="#241611"/>
<path transform="translate(563,1156)" d="m0 0 1 3h2l4 32 5 32v8h-1l-7-43-4-27z" fill="#A79889"/>
<path transform="translate(120,1398)" d="m0 0h6l-15 12-6 8-3 7-2 1-1-6 4-8h3l2-4h2v-2z" fill="#504035"/>
<path transform="translate(782,717)" d="m0 0h3l-2 4-10 10-11 9h-3v-2l8-7 5-6h2v-2l5-3z" fill="#271913"/>
<path transform="translate(768,267)" d="m0 0 7 1 15 2h39v1l-21 2h-15l-20-3-5-2z" fill="#958576"/>
<path transform="translate(1179,902)" d="m0 0h1l4 19 2 15 1 1 1 16-2-2v-8h-2l-1-2-2-24-2-6z" fill="#998979"/>
<path transform="translate(544,845)" d="m0 0h10v1l-25 5h-2v-2h-22v-1z" fill="#8E7E6F"/>
<path transform="translate(1158,860)" d="m0 0 4 1 2-1 1 6h-2l-1 3-6 4-2 11h-1v-8l3-12z" fill="#F5EADD"/>
<path transform="translate(176,539)" d="m0 0h3l6 17 2 4v6l-4-2-2-6-3-8z" fill="#2B1C16"/>
<path transform="translate(1029,1308)" d="m0 0h1v8l-2 6-2 10-5 12-8 16-4 5 1-5 5-9 6-14 7-24z" fill="#A9998A"/>
<path transform="translate(653,89)" d="m0 0v3l-12 20-6 5-1-3h3l1-5 8-13 5-5z" fill="#271913"/>
<path transform="translate(857,117)" d="m0 0 4 2 12 12 8 7 4 4h-4l-15-14-9-9z" fill="#2F201A"/>
<path transform="translate(655,257)" d="m0 0h1l5 24 3 9v4h-3l-4-14-2-15z" fill="#AA9C8D"/>
<path transform="translate(349,1135)" d="m0 0h1l1 39-2 7h-1v-22z" fill="#22140F"/>
<path transform="translate(922,1141)" d="m0 0 2 3 1 11 1 2-4 10-1-4-1-1 1-16z" fill="#827262"/>
<path transform="translate(641,184)" d="m0 0 7 1 2 2v10l-4-2-6-10z" fill="#FCFBF9"/>
<path transform="translate(821,1085)" d="m0 0 16 2v3h8l1 3-8-1-6-1v-2l-10-1-6-1v-1z" fill="#D6CDBF"/>
<path transform="translate(675,598)" d="m0 0h2l-2 6-11 18-4 4 1-5z" fill="#BFB2A3"/>
<path transform="translate(1175,1093)" d="m0 0 1 3-3 8-1 6h-2l-2 12-4 12h-1l1-8 9-31z" fill="#9C8C7C"/>
<path transform="translate(825,266)" d="m0 0h14l-1 3-4 1h-19v-1z" fill="#A79889"/>
<path transform="translate(819,179)" d="m0 0 9 6 5 5v3l2 1-5-1v-2l-4-2-7-6z" fill="#2A1C16"/>
<path transform="translate(300,329)" d="m0 0h2l-2 9-4 9h-2l-1-5 4-9z" fill="#2D1E18"/>
<path transform="translate(381,237)" d="m0 0 2 1-4 4-3 1-4 6-5 3-4 5-5 2 1-3h2l1-3 5-5 5-3 3-4 3-1z" fill="#C2B6A8"/>
<path transform="translate(925,950)" d="m0 0 4 2 11 8v3l-5-1-8-7z" fill="#281A14"/>
<path transform="translate(24,1427)" d="m0 0h1v22l-2 2-1-2v-15z" fill="#392A23"/>
<path transform="translate(708,512)" d="m0 0h1l-1 11-1 7-3 6-3 9-1-4 7-25z" fill="#B5A697"/>
<path transform="translate(382,478)" d="m0 0h3l2 3 6 2 1 5-2 1-6-3-3-3z" fill="#FAF9F6"/>
<path transform="translate(953,1071)" d="m0 0 4 2 4 3v2l4 2 3 3 1 4-4-2-12-12z" fill="#2C1E17"/>
<path transform="translate(644,1310)" d="m0 0 5 2 10 6v2l-6-1-6-2-3-5z" fill="#271913"/>
<path transform="translate(802,504)" d="m0 0h1v13l-3 20-2 3 2-24z" fill="#8B7B6B"/>
<path transform="translate(912,1458)" d="m0 0h3v2l-5 3-18 6-3-1 14-6h5v-2z" fill="#938374"/>
<path transform="translate(1e3 1380)" d="m0 0v3l-1 3h-2l-1 3h-2l-2 4-8 11-1-2 8-11 7-10z" fill="#9C8C7D"/>
<path transform="translate(1144,1284)" d="m0 0m-1 1m-1 1m-1 1 1 4-8 7-4 3-3-1 8-8 4-1z" fill="#2A1C16"/>
<path transform="translate(277,925)" d="m0 0h1v9l-2 8-2 10-2 3 1-11z" fill="#B1A395"/>
<path transform="translate(748,757)" d="m0 0h3l4 9 1 5-4-2-4-7-1-4z" fill="#271813"/>
<path transform="translate(872,434)" d="m0 0 3 1 1 7v15l-2-4-2-13z" fill="#281A14"/>
<path transform="translate(1257,940)" d="m0 0h2l1 7v14h-2l-1-9z" fill="#2B1C16"/>
<path transform="translate(328,826)" d="m0 0h2l-2 4-10 10h-2l2-4 5-7z" fill="#291B15"/>
<path transform="translate(686,798)" d="m0 0 5 1 2 3v3l-6-1-5-1z" fill="#F1E6D9"/>
<path transform="translate(695,807)" d="m0 0 4 2 9 10v2l-4-1v-2h-2v-2h-2l-5-7z" fill="#E8DDD0"/>
<path transform="translate(1184,943)" d="m0 0h2l2 10v9h-2l-2-8z" fill="#B1A192"/>
<path transform="translate(655,1134)" d="m0 0 2 1-1 4-8 8-3-2 8-8z" fill="#56453A"/>
<path transform="translate(843,632)" d="m0 0 1 4-6 12-2-4 3-5 2-5z" fill="#2F2019"/>
<path transform="translate(1029,1308)" d="m0 0h1v8l-2 6-2 10-3 1 4-17z" fill="#9D8D7E"/>
<path transform="translate(1031,1454)" d="m0 0 1 3-11 11-3-1 5-6z" fill="#3B2C25"/>
<path transform="translate(623,1165)" d="m0 0h3l1 7-4 4-1-2v-8z" fill="#1E100C"/>
<path transform="translate(1178,1075)" d="m0 0h1v10l-4 9-1-4 3-14z" fill="#AA9B8C"/>
<path transform="translate(671,66)" d="m0 0 2 1-7 8-6 5-2-1 7-8z" fill="#34261F"/>
<path transform="translate(687,1197)" d="m0 0 2 1-14 14-2-1 10-11z" fill="#DCD4CB"/>
<path transform="translate(964,1423)" d="m0 0 2 1-5 4-1 2-5 3-6 5-2-1 11-10z" fill="#A29283"/>
<path transform="translate(1020,1344)" d="m0 0 1 4-2 5h-2l-1 6-2 3h-2l2-6z" fill="#5E4D40"/>
<path transform="translate(200,427)" d="m0 0h6l-1 7-3 1-2-5z" fill="#FEFEFD"/>
<path transform="translate(99,413)" d="m0 0v3l-3 8-2 1-2 3 1-7 3-6z" fill="#2B1D16"/>
<path transform="translate(877,250)" d="m0 0 3 1h-2v2h-4v2l-8 4-2-1 3-3z" fill="#908070"/>
<path transform="translate(140,1320)" d="m0 0h7l-2 2-13 2-5-1v-1z" fill="#3B2C24"/>
<path transform="translate(1145,832)" d="m0 0 7 6 1 3h2l-1 4-4-4-5-6z" fill="#2C1D17"/>
<path transform="translate(573,1231)" d="m0 0h3v21h-1z" fill="#C4B8AA"/>
<path transform="translate(771,788)" d="m0 0 4 2 7 7-1 3-10-10z" fill="#2E2019"/>
<path transform="translate(664,75)" d="m0 0v3l-8 9-3 1 2-5z" fill="#261812"/>
<path transform="translate(699,323)" d="m0 0 4 2 9 8-2 1-8-6z" fill="#2A1B15"/>
<path transform="translate(368,247)" d="m0 0 2 1-7 9-5 2 1-3h2l1-3 5-5z" fill="#C0B3A5"/>
<path transform="translate(844,342)" d="m0 0h3l1 3v7l-4-4-1-5z" fill="#251711"/>
<path transform="translate(110,1476)" d="m0 0 10 6v2l-7-2-3-4z" fill="#231510"/>
<path transform="translate(263,801)" d="m0 0 1 2-5 8-3 1 1-4 3-5z" fill="#2A1C16"/>
<path transform="translate(570,1302)" d="m0 0h1v10l-4-4 1-4z" fill="#FEFEFD"/>
<path transform="translate(75,1539)" d="m0 0 4 1 5 3-4 2-5-4z" fill="#261812"/>
<path transform="translate(1161,1267)" d="m0 0 1 3-7 8-1-4 4-5z" fill="#2C1D17"/>
<path transform="translate(1180,1065)" d="m0 0h1v11l-1 5h-1l-1-9z" fill="#9C8C7D"/>
<path transform="translate(741,859)" d="m0 0 5 5 4 5-4-1-4-4z" fill="#DDD5C7"/>
</svg>
